<?xml version="1.0" encoding="iso-8859-1"?>
<!-- Uploaded to: SVG Repo, www.svgrepo.com, Generator: SVG Repo Mixer Tools -->
<svg height="800px" width="800px" version="1.1" id="Layer_1" xmlns="http://www.w3.org/2000/svg" xmlns:xlink="http://www.w3.org/1999/xlink" 
	 viewBox="0 0 512.001 512.001" xml:space="preserve">
<path style="fill:#238CC5;" d="M395.682,364.149l-111.564-86.842c-4.737-3.687-7.507-9.355-7.507-15.358v-52.894
	c0-14.564-11.843-26.412-26.401-26.412h-34.284c-10.748,0-19.462-8.714-19.462-19.462V65.323C196.466,29.303,225.769,0,261.789,0
	h184.316c36.018,0,65.323,29.303,65.323,65.323v150.504c0,36.02-29.304,65.323-65.323,65.323h-24.639l5.565,66.007
	C428.462,364.156,408.94,374.47,395.682,364.149z"/>
<g>
	<path style="fill:#2C3E50;" d="M417.367,111.729H290.529c-10.748,0-19.462-8.714-19.462-19.462s8.714-19.462,19.462-19.462h126.839
		c10.748,0,19.462,8.714,19.462,19.462S428.116,111.729,417.367,111.729z"/>
	<path style="fill:#2C3E50;" d="M417.367,160.037H313.165c-10.748,0-19.462-8.714-19.462-19.462s8.714-19.462,19.462-19.462h104.202
		c10.748,0,19.462,8.714,19.462,19.462S428.116,160.037,417.367,160.037z"/>
	<path style="fill:#2C3E50;" d="M417.367,208.345h-72.666c-10.748,0-19.462-8.714-19.462-19.462s8.714-19.462,19.462-19.462h72.666
		c10.748,0,19.462,8.714,19.462,19.462S428.116,208.345,417.367,208.345z"/>
</g>
<path style="fill:#51B3DA;" d="M84.97,490.876l5.565-66.007H65.896c-36.019,0-65.323-29.303-65.323-65.323V209.056
	c0-36.026,29.304-65.336,65.323-65.336h184.316c36.02,0,65.324,29.309,65.324,65.336v150.491c0,36.02-29.304,65.323-65.324,65.323
	h-27.266l-106.628,82.999C103.026,518.214,83.539,507.864,84.97,490.876z"/>
<g>
	<path style="fill:#F1F2F2;" d="M221.469,255.455H94.63c-10.748,0-19.462-8.714-19.462-19.462s8.714-19.462,19.462-19.462h126.839
		c10.748,0,19.462,8.714,19.462,19.462S232.217,255.455,221.469,255.455z"/>
	<path style="fill:#F1F2F2;" d="M221.469,303.762H94.63c-10.748,0-19.462-8.714-19.462-19.462s8.714-19.462,19.462-19.462h126.839
		c10.748,0,19.462,8.714,19.462,19.462C240.931,295.048,232.217,303.762,221.469,303.762z"/>
	<path style="fill:#F1F2F2;" d="M221.469,352.07H94.63c-10.748,0-19.462-8.714-19.462-19.462s8.714-19.462,19.462-19.462h126.839
		c10.748,0,19.462,8.714,19.462,19.462S232.217,352.07,221.469,352.07z"/>
</g>
</svg>